<svg xmlns="http://www.w3.org/2000/svg" xmlns:xlink="http://www.w3.org/1999/xlink" id="Layer_1" x="0px" y="0px" viewBox="0 0 950 179" style="enable-background:new 0 0 950 179;" xml:space="preserve">
<style type="text/css">.st0{fill:#fff}</style>
    <g>
	<path class="st0" d="M104.2,3.2c-25,0-47.4,10.7-63,27.7l-0.4,0.4c0.3,5.6,0.6,9.5,0.7,11.9c0.5,7.2,0.7,12.6-0.5,16.4   c-1.9,5.9-5.3,10.2-7.9,12.1c-2.6,2-4.5,2.7-4.5,5c0,2.4,0.4,4.7,0.6,7.4c0.5,5.4,1.1,11.8,1.8,20.7c0.4,5.4,1.1,15.4,2,29.9   c0.3,0.5,0.5,0.8,0.7,1c15.3,22.4,41.2,37.2,70.6,37.2c30.5,0,57.2-15.9,72.3-39.8c0.1-0.2,0.3-0.4,0.5-0.8l2.8-42   c-2.1-1-3.4-1.8-4.1-2.5c-3.1-3-4.1-6.2-4.1-8.6c-0.1-6.4-0.1-23.1-0.1-30.2c0-4.7,0.3-8.7,0.8-11.9l-0.3-0.4   C156.5,16.3,131.9,3.2,104.2,3.2z M104.2,152.2c-35.7,0-64.7-28.9-64.7-64.3s29-64.3,64.7-64.3c35.7,0,64.7,28.9,64.7,64.3   S139.9,152.2,104.2,152.2L104.2,152.2z"></path>
        <path class="st0" d="M104.2,29.5c31.9,0,57.9,26,57.9,57.9c0,31.9-26,57.9-57.9,57.9c-31.9,0-57.9-26-57.9-57.9   C46.3,55.5,72.3,29.5,104.2,29.5z M126.5,92c-0.2,0.7-4.6,16.9-23.4,16.9c-18.9,0-23.3-16.2-23.4-16.9c-0.3-1.2-1.6-2-2.8-1.7   c-1.2,0.3-2,1.6-1.7,2.8c0,0.2,5.4,20.5,28,20.5c3.9,0,7.2-0.6,10.1-1.6c0.9-0.3,1.8-0.7,2.7-1.1l3.7,3.8c3,3.1,8.7,3.5,12.1,0   c3.5-3.5,3.3-8.8,0.3-11.9l-3.5-3.7c0.6-1.1,1.1-2.1,1.5-3c0.8-1.8,1.1-2.9,1.1-3c0.3-1.2-0.4-2.5-1.7-2.8   C128.1,90,126.9,90.7,126.5,92L126.5,92z M86.8,71.5c-8.4,0-11.3,5.7-11.4,6c-0.6,1.2-0.1,2.6,1,3.1c0.3,0.2,0.7,0.2,1,0.2   c0.9,0,1.7-0.5,2.1-1.3c0,0,1.8-3.4,7.3-3.4c5.2,0,7.1,3.1,7.3,3.4l0.1,0.2c0.6,1,1.9,1.4,3,0.9c1.2-0.6,1.6-2,1-3.1   C98.1,77.2,95.1,71.5,86.8,71.5z M119.5,71.5c-8.4,0-11.3,5.7-11.4,6c-0.6,1.2-0.1,2.6,1,3.1c1.1,0.6,2.4,0.2,3-0.9l0.1-0.1   c0.1-0.2,1.9-3.4,7.3-3.4c5.4,0,7.2,3.3,7.3,3.4c0.4,0.8,1.2,1.3,2.1,1.3c0.4,0,0.7-0.1,1-0.2c1.2-0.6,1.6-2,1-3.1   C130.8,77.2,127.8,71.5,119.5,71.5z"></path>
        <path class="st0" d="M196.9,84.5V1.9c0-0.8-0.5-1.5-1.2-1.8c-0.7-0.3-1.6,0-2,0.6C183.5,14.3,178,30.9,178,48v30.2   c0,3.5,2.8,6.3,6.2,6.3h2.6c-2.5,26.7-4.2,64-4.2,68.3c0,6.9,4.2,12.5,9.3,12.5c5.1,0,9.3-5.6,9.3-12.5   C201.1,148.5,199.4,111.2,196.9,84.5L196.9,84.5z"></path>
        <path class="st0" d="M27.2,68.1c5.2-3.2,8.6-8.9,8.6-15.5l-2.6-42.4c-0.1-1.6-1.4-2.9-3-2.9c-1.7,0-3.1,1.5-3,3.2l1.7,34   c0,1.9-1.5,3.5-3.4,3.5c-1.9,0-3.4-1.5-3.4-3.5l-0.8-34c0-1.8-1.5-3.2-3.3-3.2c-1.8,0-3.2,1.4-3.3,3.2l-0.8,34   c0,1.9-1.5,3.5-3.4,3.5s-3.4-1.5-3.4-3.5l1.7-34c0.1-1.7-1.3-3.2-3-3.2c-1.6,0-2.9,1.3-3,2.9L0,52.6C0,59.2,3.5,65,8.6,68.1   c3.4,2.1,5.2,5.9,4.8,9.9c-2.9,26.6-4.9,70.1-4.9,74.9c0,6.9,4.2,12.5,9.4,12.5s9.4-5.6,9.4-12.5c0-4.7-2-48.2-4.9-74.9   C21.9,74.1,23.8,70.2,27.2,68.1L27.2,68.1z"></path>
        <path class="st0" d="M300.5,139.5v-36.8h15.8c8.3,0,15.3-1.5,21.1-4.4s10.1-6.9,13.1-12c2.9-5.1,4.4-10.9,4.4-17.4   c0-10.5-3.3-18.8-9.9-25c-6.6-6.2-16.1-9.3-28.7-9.3H275v105L300.5,139.5L300.5,139.5z M313.5,82.4h-13V55h13   c10.3,0,15.4,4.6,15.4,13.8C328.9,77.8,323.8,82.4,313.5,82.4z M381.2,46.6c4.6,0,8.3-1.3,11.1-3.8c2.8-2.5,4.2-5.7,4.2-9.4   c0-3.9-1.4-7.1-4.2-9.6c-2.8-2.5-6.5-3.8-11.1-3.8s-8.3,1.3-11.1,3.8c-2.8,2.5-4.2,5.7-4.2,9.6c0,3.8,1.4,6.9,4.2,9.4   C373,45.3,376.7,46.6,381.2,46.6z M393.9,139.5V56.7h-25.5v82.8H393.9z M450.1,140.5c10.8,0,19.8-2.9,27-8.8   c7.3-5.9,11.9-14,13.7-24.3h-27c-0.8,3.6-2.4,6.3-4.9,8.3c-2.5,2-5.6,3-9.4,3c-4.5,0-8.2-1.8-11.1-5.3c-2.9-3.5-4.3-8.6-4.3-15.4   s1.4-11.9,4.3-15.4c2.9-3.5,6.6-5.3,11.1-5.3c3.8,0,6.9,1,9.4,3c2.5,2,4.1,4.8,4.9,8.3h27c-1.9-10.3-6.5-18.4-13.7-24.3   c-7.3-5.9-16.3-8.8-27-8.8c-8.2,0-15.4,1.7-21.8,5.1c-6.4,3.4-11.3,8.3-14.9,14.7c-3.5,6.4-5.3,13.9-5.3,22.6   c0,8.6,1.8,16.1,5.4,22.6c3.6,6.4,8.5,11.4,14.9,14.8C434.7,138.8,442,140.5,450.1,140.5L450.1,140.5z M530.7,139.5v-35.2   l24.9,35.2h30.8l-34.4-41.4l33.6-41.4h-30l-24.9,33.3V29.6h-25.5v109.9L530.7,139.5L530.7,139.5z M662.3,139.5v-20.3h-40.2V95.9   h35.7V76.7h-35.7v-22h40.2V34.5h-65.7v105L662.3,139.5L662.3,139.5z M709.4,140.5c6.4,0,11.9-1.4,16.4-4.3c4.6-2.9,8-6.8,10.2-11.7   v15h25.4V56.7H736v15c-2.2-4.9-5.6-8.9-10.2-11.7s-10.1-4.3-16.4-4.3c-6.9,0-13,1.7-18.4,5.1c-5.4,3.4-9.7,8.3-12.8,14.7   c-3.1,6.4-4.7,13.9-4.7,22.6c0,8.6,1.6,16.1,4.7,22.6c3.1,6.4,7.4,11.4,12.8,14.8C696.4,138.8,702.6,140.5,709.4,140.5z    M717.6,118.3c-5.5,0-9.9-1.8-13.2-5.3s-5-8.5-5-14.8c0-6.3,1.7-11.3,5-14.8s7.7-5.3,13.2-5.3c5.4,0,9.8,1.8,13.2,5.4   c3.4,3.6,5.2,8.5,5.2,14.8c0,6.1-1.7,11-5.2,14.7C727.4,116.4,723,118.3,717.6,118.3z M816.3,140.5c6.7,0,12.4-1,17.3-3.1   s8.6-4.9,11.2-8.6c2.6-3.7,3.9-7.9,3.9-12.6c0-5.8-1.5-10.5-4.5-14c-3-3.5-6.5-6-10.6-7.5c-4.1-1.5-9.3-3-15.7-4.5   c-5.9-1.3-10.2-2.6-12.9-3.9c-2.7-1.3-4.1-3.2-4.1-5.8c0-2.3,0.7-4,2.2-5.3c1.5-1.2,3.7-1.9,6.6-1.9c3.7,0,6.7,1,9.2,2.9   s4,4.6,4.7,7.9h23.9c-1.6-8.6-5.6-15.5-11.9-20.8c-6.3-5.2-14.8-7.9-25.3-7.9c-10.4,0-18.4,2.3-24,6.9c-5.7,4.6-8.5,10.6-8.5,18   c0,5.7,1.4,10.3,4.3,13.6c2.9,3.3,6.3,5.7,10.3,7.2c4,1.5,9.1,2.9,15.2,4.2c6.2,1.4,10.6,2.7,13.4,3.9c2.7,1.2,4.1,3.3,4.1,6.2   c0,2.2-0.7,3.9-2.2,5.3c-1.5,1.3-3.7,2-6.6,2c-4.2,0-7.6-0.9-10.2-2.8s-4.2-4.6-4.6-8.2h-24.6c1.5,9.2,5.6,16.3,12.4,21.2   C796,138.1,805,140.5,816.3,140.5L816.3,140.5z M898,179l52-122.3h-28.2l-18.7,50.8l-20-50.8h-28.5l35,79.7L869.9,179H898z"></path>
</g>
</svg>